<?xml version="1.0" encoding="UTF-8"?>
<svg id="_レイヤー_2" data-name="レイヤー 2" xmlns="http://www.w3.org/2000/svg" viewBox="0 0 1500 1500">
  <defs>
    <style>
      .cls-1 {
        fill: #323232;
      }

      .cls-2 {
        fill: #71a59b;
      }

      .cls-2, .cls-3, .cls-4, .cls-5 {
        stroke-miterlimit: 10;
        stroke-width: 7px;
      }

      .cls-2, .cls-4, .cls-5 {
        stroke: #000;
      }

      .cls-3 {
        fill: none;
        stroke: #323232;
      }

      .cls-4 {
        fill: #9cbc4b;
      }

      .cls-5 {
        fill: #f2b42a;
      }
    </style>
  </defs>
  <g id="fumirogo_アウトライン_" data-name="fumirogo（アウトライン）">
    <g>
      <path class="cls-3" d="M746.67,638.9c-16.79,85.71-57.18,166.68-115.54,231.66-13.12,14.6-27.45,28.65-45.01,37.43-17.56,8.77-38.95,11.67-56.86,3.63-27.4-12.29-38.75-45.54-39.91-75.54-3.7-95.34,69.22-182.84,159.01-215.13,94.98-34.15,209.05-11.65,280.96,59.17,71.91,70.82,95.72,187.48,53.43,279.12-42.29,91.64-149.72,149.59-248.84,130.57"/>
      <path class="cls-3" d="M747.08,662.65c-16.79,85.71-57.18,166.68-115.54,231.66-13.12,14.6-27.45,28.65-45.01,37.43-17.56,8.77-38.95,11.67-56.86,3.63-27.4-12.29-38.75-45.54-39.91-75.54-3.7-95.34,69.22-182.84,159.01-215.13,94.98-34.15,209.05-11.65,280.96,59.17,71.91,70.82,95.72,187.48,53.43,279.12-42.29,91.64-149.72,149.59-248.84,130.57"/>
      <path class="cls-3" d="M746.15,623.77c-16.79,85.71-57.18,166.68-115.54,231.66-13.12,14.6-27.45,28.65-45.01,37.43-17.56,8.77-38.95,11.67-56.86,3.63-27.4-12.29-38.75-45.54-39.91-75.54-3.7-95.34,69.22-182.84,159.01-215.13,94.98-34.15,209.05-11.65,280.96,59.17,71.91,70.82,95.72,187.48,53.43,279.12-42.29,91.64-149.72,149.59-248.84,130.57"/>
      <path class="cls-3" d="M712.47,654.48c-16.79,85.71-57.18,166.68-115.54,231.66-13.12,14.6-27.45,28.65-45.01,37.43-17.56,8.77-38.95,11.67-56.86,3.63-27.4-12.29-38.75-45.54-39.91-75.54-3.7-95.34,69.22-182.84,159.01-215.13,94.98-34.15,209.05-11.65,280.96,59.17,71.91,70.82,95.72,187.48,53.43,279.12-42.29,91.64-149.72,149.59-248.84,130.57"/>
      <path class="cls-3" d="M728.91,654.48c-16.79,85.71-57.18,166.68-115.54,231.66-13.12,14.6-27.45,28.65-45.01,37.43-17.56,8.77-38.95,11.67-56.86,3.63-27.4-12.29-38.75-45.54-39.91-75.54-3.7-95.34,69.22-182.84,159.01-215.13,94.98-34.15,209.05-11.65,280.96,59.17,71.91,70.82,95.72,187.48,53.43,279.12-42.29,91.64-149.72,149.59-248.84,130.57"/>
    </g>
    <g>
      <path class="cls-1" d="M567.31,611.24c1.58-.85,3.19-.99,4.85-.43,1.65.56,2.8,1.63,3.47,3.2l4.35,9.69c1.05,2.14,1.22,4.32.48,6.55-.73,2.23-2.11,3.89-4.13,4.98l-46.75,25.19c-2.1,1.13-4.28,1.34-6.54.63-2.27-.71-3.84-2.14-4.7-4.28-2.39-6.06-3.34-11.85-2.85-17.39.5-5.54,2.12-11.03,4.89-16.49,2.77-5.46,6.35-11.01,10.74-16.66,3.55-4.53,6.33-8.39,8.33-11.59,2-3.2,3.01-6.26,3.03-9.18.03-2.91-1.11-6.12-3.38-9.63-2.95-4.02-6.53-6.34-10.78-6.95-4.24-.61-8.91.45-14.01,3.2-4.27,2.3-7.5,5.01-9.69,8.13-2.19,3.11-3.19,6.45-3.01,10.02-.04.12.01.29.13.51.2.37.55.58,1.05.6,3.05.29,5.31,1.78,6.76,4.48,1.13,2.1,1.34,4.28.63,6.54-.71,2.27-2.12,3.97-4.21,5.1-2.55,1.37-4.99,1.5-7.33.4-2.34-1.11-4.23-3.01-5.68-5.71-1.62-2.99-2.45-6.41-2.49-10.26,0-6.28,1.75-11.96,5.25-17.04,3.5-5.07,7.86-9.02,13.11-11.85,4.2-2.26,8.64-3.66,13.33-4.21,4.69-.54,9.29-.03,13.81,1.55,4.52,1.58,8.48,4.44,11.89,8.6.99,1.31,1.86,2.67,2.63,4.09,2.1,3.9,3.11,7.64,3,11.22-.1,3.58-.92,7.12-2.47,10.61-1.55,3.5-3.49,6.93-5.82,10.32-2.34,3.38-4.77,6.77-7.29,10.15-2.52,3.39-4.78,6.84-6.76,10.32-1.99,3.49-3.4,7.05-4.25,10.69-.84,3.64-.74,7.41.3,11.3l.12.23c.32.6.78.74,1.39.42l39.67-21.37c.75-.41.86-.9.35-1.5-.73-1.16-1.43-2.25-2.13-3.27-.7-1.03-1.29-1.99-1.78-2.89-.77-1.43-.91-2.92-.45-4.47.46-1.56,1.45-2.74,2.94-3.55Z"/>
      <path class="cls-1" d="M602.83,610.41c-8.26,0-15.23-1.94-20.94-5.81-5.7-3.87-9.4-9.17-11.1-15.89-.51-1.79-.76-3.53-.76-5.23,0-3.24.85-5.92,2.55-8.05,1.7-2.12,4-3.19,6.89-3.19,2.38,0,4.4.85,6.07,2.56,1.66,1.7,2.49,3.74,2.49,6.12,0,3.49-1.53,6-4.6,7.53-.68.43-.89.94-.64,1.53,2.47,6.64,9.15,9.96,20.04,9.96,2.21,0,4.61-.32,7.21-.96s5.04-1.62,7.34-2.94c2.3-1.31,4.17-2.98,5.61-4.98,1.44-2,2.17-4.36,2.17-7.08,0-1.87-.21-3.79-.64-5.74s-1.41-3.77-2.93-5.42c-1.53-1.66-3.98-3.04-7.34-4.15s-7.98-1.79-13.85-2.04c-1.28-.08-2.4-.58-3.38-1.47-.98-.89-1.47-2.02-1.47-3.38,0-1.45.47-2.68,1.4-3.7s2.13-1.57,3.57-1.66c15.66-.77,23.49-6.21,23.49-16.34,0-2.98-.89-5.68-2.68-8.11-1.79-2.43-4.21-4.36-7.27-5.81-3.06-1.44-6.47-2.17-10.22-2.17-9.36,0-15.83,3.15-19.4,9.45-.09.17-.13.34-.13.51,0,.43.21.77.64,1.02,2.64,1.7,3.96,4.13,3.96,7.28,0,2.38-.85,4.4-2.55,6.06-1.7,1.66-3.75,2.49-6.13,2.49-2.81,0-5.04-1.02-6.7-3.06-1.66-2.04-2.49-4.55-2.49-7.53,0-1.62.26-3.23.77-4.85,1.87-6.73,5.7-12.04,11.49-15.96,5.79-3.92,12.68-5.87,20.68-5.87,5.28,0,9.85.83,13.72,2.49,3.87,1.66,7.11,3.85,9.7,6.58,2.59,2.73,4.53,5.61,5.81,8.68,1.28,3.06,1.92,6,1.92,8.81,0,4.43-1.24,8.42-3.7,12-2.47,3.57-5.83,6.34-10.09,8.29-.43.17-.64.36-.64.58s.26.41.77.58c9.96,3.57,14.93,10.85,14.93,21.83,0,5.11-1.46,9.7-4.4,13.78-2.93,4.09-6.93,7.32-12,9.7-5.06,2.38-10.78,3.57-17.17,3.57Z"/>
      <ellipse class="cls-3" cx="440.57" cy="558.97" rx="2.19" ry="26.13" transform="translate(-248.27 737.98) rotate(-66.32)"/>
      <ellipse class="cls-3" cx="518.45" cy="471.29" rx="2.19" ry="26.13" transform="translate(-165.78 320.5) rotate(-29.84)"/>
      <ellipse class="cls-3" cx="635.64" cy="463.49" rx="26.13" ry="2.19" transform="translate(3.47 931.72) rotate(-72.62)"/>
    </g>
    <circle class="cls-3" cx="744.42" cy="784.19" r="478.68"/>
    <circle class="cls-2" cx="954.51" cy="382.63" r="82.44"/>
    <circle class="cls-4" cx="1050.25" cy="441.14" r="82.44"/>
    <circle class="cls-5" cx="1130.03" cy="526.24" r="82.44"/>
  </g>
</svg>